<svg xmlns="http://www.w3.org/2000/svg" width="367.451" height="68.527" viewBox="0 0 367.451 68.527">
  <g id="cengage-logo-horizontal-rgb" transform="translate(-85.259 -85.209)">
    <path id="Path_2566" data-name="Path 2566" d="M181.191,102.628l-.484-2.385h0l-.285-1.374-2.008-9.677h0l-.484-2.385a2.1,2.1,0,0,0-2.08-1.6l-9.091.435a1.451,1.451,0,0,0-1.384,1.761l1.069,5.158h0l2.787,13.417a1.582,1.582,0,0,0,2,1.21l8.675-2.419A1.872,1.872,0,0,0,181.191,102.628Z" transform="translate(-41.335)" fill="#292f7c"/>
    <path id="Path_2567" data-name="Path 2567" d="M169.5,193.351l2.3.808h0l1.326.484,9.3,3.28h0l2.293.808a2.09,2.09,0,0,0,2.419-.968l4.355-8a1.452,1.452,0,0,0-.789-2.1l-4.974-1.751h0l-12.918-4.558a1.577,1.577,0,0,0-2.071,1.089l-2.395,8.709A1.868,1.868,0,0,0,169.5,193.351Z" transform="translate(-42.856 -49.578)" fill="#292f7c"/>
    <path id="Path_2568" data-name="Path 2568" d="M125.207,101.367l-2.318-.784h0l-1.331-.45-9.314-3.174h0l-2.3-.784a2.09,2.09,0,0,0-2.419.968l-4.238,8.051a1.452,1.452,0,0,0,.813,2.085l4.988,1.7h0l12.972,4.413a1.587,1.587,0,0,0,2.061-1.113l2.3-8.709a1.877,1.877,0,0,0-1.21-2.2Z" transform="translate(-9.209 -5.614)" fill="#292f7c"/>
    <path id="Path_2569" data-name="Path 2569" d="M121.436,185.888l.484,2.385h0l.281,1.379,1.989,9.677h0l.484,2.385a2.09,2.09,0,0,0,2.076,1.6l9.1-.421a1.452,1.452,0,0,0,1.384-1.756l-1.021-5.182h0l-2.763-13.417a1.577,1.577,0,0,0-2-1.214l-8.675,2.419a1.872,1.872,0,0,0-1.335,2.148Z" transform="translate(-18.656 -49.575)" fill="#292f7c"/>
    <path id="Path_2570" data-name="Path 2570" d="M98.2,141.75l-1.848,1.587h0l-1.069.914-7.495,6.421h0l-1.848,1.587a2.081,2.081,0,0,0-.392,2.589l4.771,7.741a1.452,1.452,0,0,0,2.211.363l4-3.43h0l10.378-8.912a1.582,1.582,0,0,0,.092-2.337l-6.329-6.416A1.882,1.882,0,0,0,98.2,141.75Z" transform="translate(0 -28.972)" fill="#292f7c"/>
    <path id="Path_2571" data-name="Path 2571" d="M197.347,149.254l1.848-1.563h0l1.064-.914,7.485-6.421h0l1.848-1.587a2.09,2.09,0,0,0,.392-2.589l-4.775-7.741a1.452,1.452,0,0,0-2.211-.363l-4,3.43h0l-10.4,8.922a1.582,1.582,0,0,0-.092,2.337l6.333,6.377a1.882,1.882,0,0,0,2.506.111Z" transform="translate(-53.049 -21.941)" fill="#292f7c"/>
    <path id="Path_2572" data-name="Path 2572" d="M302.379,133.356l6.5,3.793c-3.522,6.841-9.89,10.973-18.357,10.973A21.183,21.183,0,0,1,274,141.01c-4.267-4.742-6.367-10.567-6.367-17.544s2.1-12.8,6.367-17.544a21.234,21.234,0,0,1,16.552-7.112,19.752,19.752,0,0,1,18.357,11.041l-6.5,3.793c-2.3-5.148-6.232-7.741-11.854-7.741a13.452,13.452,0,0,0-10.973,5.013,19.21,19.21,0,0,0-4.064,12.531,19.247,19.247,0,0,0,4.064,12.531,13.672,13.672,0,0,0,10.973,5.1C296.147,141,300.076,138.436,302.379,133.356Z" transform="translate(-94.133 -7.02)" fill="#292f7c"/>
    <path id="Path_2573" data-name="Path 2573" d="M396.962,145.4H369.34c.745,6.232,4.064,9.193,10.567,9.193,4.742,0,8.061-1.693,10.025-5.013l5.487,3.251a17.831,17.831,0,0,1-15.512,8.332c-5.487,0-9.822-1.626-13.006-4.945s-4.742-7.858-4.742-13.547c0-5.419,1.626-9.89,4.809-13.344s7.587-5.216,12.938-5.216c5.08,0,9.145,1.626,12.193,4.945s4.674,7.587,4.877,12.938Zm-6.706-6.57c-.881-5.148-4.945-8.332-10.364-8.332a10.047,10.047,0,0,0-10.364,8.332Z" transform="translate(-142.926 -20.079)" fill="#292f7c"/>
    <path id="Path_2574" data-name="Path 2574" d="M481.105,160.593h-7.383V138.714c0-6.029-2.9-8.2-6.232-8.2-7.451,0-11.177,5.08-11.177,15.309v14.767H448.93V124.76h7.383l1.49,3.59a14.5,14.5,0,0,1,10.093-4.2c8.806,0,13.209,4.674,13.209,14.089Z" transform="translate(-187.713 -20.1)" fill="#292f7c"/>
    <path id="Path_2575" data-name="Path 2575" d="M563.994,155.851c0,12.125-6.571,17.544-17.138,17.544-7.654,0-13.277-1.693-16.867-5.148l4.742-5.554c2.9,2.777,6.909,4.2,11.99,4.2,6.774,0,9.89-3.455,9.89-11.041-1.558,3.319-5.148,5.622-10.093,5.622a14.985,14.985,0,0,1-12.057-5.487,20.062,20.062,0,0,1-4.466-13.276,19.663,19.663,0,0,1,4.674-13.006,15.339,15.339,0,0,1,12.4-5.554,12.44,12.44,0,0,1,8.53,3.314l1.016-2.709h7.383Zm-9.551-4.471a13.662,13.662,0,0,0,2.709-8.67,13.342,13.342,0,0,0-2.709-8.467,8.784,8.784,0,0,0-7.383-3.522c-6.774,0-9.677,5.148-9.677,11.99a15.561,15.561,0,0,0,2.3,8.6c1.558,2.439,4.064,3.59,7.383,3.59A8.779,8.779,0,0,0,554.443,151.38Z" transform="translate(-229.553 -20.1)" fill="#292f7c"/>
    <path id="Path_2576" data-name="Path 2576" d="M643.919,160.577H638.5c-1.626,0-2.419-1.152-2.419-3.387-2.709,2.71-4.945,4-9.822,4-7.587,0-13.209-3.658-13.209-11.041.271-6.164,2.777-9.145,7.519-10.364,3.319-1.016,5.69-1.152,9.957-1.355,3.59-.135,5.351-1.287,5.351-3.455,0-2.419-2.845-4.674-6.909-4.674q-5.893,0-8.941,4.267l-4.829-4.214c3.048-4.064,8.128-6.232,13.751-6.232,8.467,0,13.818,4.674,13.818,13.276v20.534c0,.968.406,1.422,1.152,1.422Zm-9.754-8.061c1.287-1.829,1.964-4.538,1.964-7.993v-2.032c-.745,1.016-2.709,1.49-3.871,1.693-.542.068-1.422.068-2.642.135s-1.829.068-1.9.068c-4.877.2-7.316,2.168-7.316,5.758,0,2.371,1.693,5.148,5.806,5.148C630.236,155.294,632.863,154.345,634.165,152.516Z" transform="translate(-272.426 -20.084)" fill="#292f7c"/>
    <path id="Path_2577" data-name="Path 2577" d="M722.192,155.851c0,12.125-6.57,17.544-17.137,17.544-7.654,0-13.276-1.693-16.867-5.148l4.742-5.554c2.9,2.777,6.909,4.2,11.99,4.2,6.774,0,9.89-3.455,9.89-11.041-1.558,3.319-5.148,5.622-10.093,5.622a14.985,14.985,0,0,1-12.057-5.487,20.065,20.065,0,0,1-4.471-13.277,19.663,19.663,0,0,1,4.674-13.006,15.339,15.339,0,0,1,12.4-5.554,12.44,12.44,0,0,1,8.535,3.314l1.016-2.71h7.383Zm-9.551-4.471a13.662,13.662,0,0,0,2.709-8.67,13.342,13.342,0,0,0-2.709-8.467,8.784,8.784,0,0,0-7.383-3.522c-6.774,0-9.677,5.148-9.677,11.989a15.561,15.561,0,0,0,2.3,8.6c1.558,2.439,4.064,3.59,7.383,3.59A8.748,8.748,0,0,0,712.641,151.38Z" transform="translate(-311.208 -20.1)" fill="#292f7c"/>
    <path id="Path_2578" data-name="Path 2578" d="M807.567,145.4H779.93c.745,6.232,4.064,9.193,10.567,9.193,4.742,0,8.061-1.693,10.025-5.013l5.487,3.251a17.832,17.832,0,0,1-15.512,8.332c-5.487,0-9.822-1.626-13.005-4.945s-4.742-7.858-4.742-13.547c0-5.419,1.626-9.89,4.809-13.344s7.587-5.216,12.938-5.216c5.08,0,9.145,1.626,12.193,4.945s4.674,7.587,4.877,12.938Zm-6.706-6.57c-.881-5.148-4.945-8.332-10.364-8.332a10.047,10.047,0,0,0-10.364,8.332Z" transform="translate(-354.857 -20.079)" fill="#292f7c"/>
  </g>
</svg>
